<?xml version="1.0" encoding="utf-8"?>
<!-- Generator: Adobe Illustrator 23.0.5, SVG Export Plug-In . SVG Version: 6.00 Build 0)  -->
<svg version="1.1" id="图层_1" xmlns="http://www.w3.org/2000/svg" xmlns:xlink="http://www.w3.org/1999/xlink" x="0px" y="0px"
	 viewBox="0 0 187 151.33" style="enable-background:new 0 0 187 151.33;" xml:space="preserve">
<style type="text/css">
	.st0{font-family:'MicrosoftYaHei';}
	.st1{font-size:8.9967px;}
	.st2{font-family:'Cmr10';}
	.st3{fill:none;stroke:#000000;stroke-width:0.3597;stroke-miterlimit:10;}
	.st4{fill:none;stroke:#000000;stroke-width:0.3602;stroke-miterlimit:10;}
	.st5{fill:none;stroke:#000000;stroke-width:0.3605;stroke-miterlimit:10;}
</style>
<g>
	<text transform="matrix(1 0 0 1 61.34 18.9586)" class="st0 st1">λ</text>
	<text transform="matrix(1 0 0 1 66.238 18.9586)" class="st0 st1">ω</text>
	<text transform="matrix(1 0 0 1 155.0553 18.9586)" class="st0 st1">λ</text>
	<text transform="matrix(1 0 0 1 160.3088 18.9586)" class="st0 st1">Π</text>
	<text transform="matrix(1 0 0 1 167.0612 18.9586)" class="st0 st1">ω</text>
	<text transform="matrix(1 0 0 1 16.3215 58.7565)" class="st0 st1">λ</text>
	<text transform="matrix(1 0 0 1 21.5729 58.7565)" class="st2 st1">2</text>
	<text transform="matrix(1 0 0 1 105.5343 58.7565)" class="st0 st1">λ</text>
	<text transform="matrix(1 0 0 1 110.7863 58.7565)" class="st0 st1">Π</text>
	<text transform="matrix(1 0 0 1 117.7716 58.7565)" class="st2 st1">2</text>
	<text transform="matrix(1 0 0 1 61.34 98.5553)" class="st0 st1">λ</text>
	<text transform="matrix(1 0 0 1 66.238 98.5553)" class="st0 st1">ω</text>
	<line class="st3" x1="66.6" y1="99.82" x2="72.52" y2="99.82"/>
	<text transform="matrix(1 0 0 1 155.0553 98.5553)" class="st0 st1">λ</text>
	<text transform="matrix(1 0 0 1 160.3088 98.5553)" class="st0 st1">Π</text>
	<text transform="matrix(1 0 0 1 167.0612 98.5553)" class="st0 st1">ω</text>
	<line class="st3" x1="167.06" y1="99.82" x2="172.99" y2="99.82"/>
	<text transform="matrix(1 0 0 1 14.07 138.3527)" class="st0 st1">λ</text>
	<text transform="matrix(1 0 0 1 19.3229 138.3527)" class="st0 st1">→</text>
	<text transform="matrix(1 0 0 1 107.7853 138.3527)" class="st0 st1">λ</text>
	<text transform="matrix(1 0 0 1 113.0382 138.3527)" class="st0 st1">Π</text>
	<line class="st4" x1="75.7" y1="16.53" x2="145.65" y2="16.53"/>
	<path d="M150.95,16.53c-0.65-0.13-3.52-0.85-5.31-1.64v3.28C147.44,17.38,150.3,16.66,150.95,16.53z"/>
	<path class="st4" d="M150.95,16.53c-0.65-0.13-3.52-0.85-5.31-1.64v3.28C147.44,17.38,150.3,16.66,150.95,16.53z"/>
	<line class="st4" x1="29.25" y1="56.34" x2="96.13" y2="56.34"/>
	<path d="M101.44,56.34c-0.65-0.13-3.52-0.85-5.31-1.64v3.28C97.92,57.19,100.79,56.46,101.44,56.34z"/>
	<path class="st4" d="M101.44,56.34c-0.65-0.13-3.52-0.85-5.31-1.64v3.28C97.92,57.19,100.79,56.46,101.44,56.34z"/>
	<line class="st4" x1="28.75" y1="49.76" x2="54.68" y2="27.2"/>
	<path d="M58.69,23.71c-0.58,0.33-3.21,1.66-5.08,2.25l2.15,2.48C56.59,26.67,58.28,24.23,58.69,23.71z"/>
	<path class="st4" d="M58.69,23.71c-0.58,0.33-3.21,1.66-5.08,2.25l2.15,2.48C56.59,26.67,58.28,24.23,58.69,23.71z"/>
	<line class="st4" x1="66.93" y1="89.56" x2="66.93" y2="29.33"/>
	<path d="M66.93,24.03c-0.13,0.65-0.85,3.52-1.64,5.31h3.28C67.78,27.54,67.06,24.68,66.93,24.03z"/>
	<path class="st4" d="M66.93,24.03c-0.13,0.65-0.85,3.52-1.64,5.31h3.28C67.78,27.54,67.06,24.68,66.93,24.03z"/>
	<line class="st4" x1="75.7" y1="96.13" x2="145.65" y2="96.13"/>
	<path d="M150.95,96.13c-0.65-0.13-3.52-0.85-5.31-1.64v3.28C147.44,96.99,150.3,96.26,150.95,96.13z"/>
	<path class="st4" d="M150.95,96.13c-0.65-0.13-3.52-0.85-5.31-1.64v3.28C147.44,96.99,150.3,96.26,150.95,96.13z"/>
	<line class="st4" x1="21.2" y1="129.36" x2="21.2" y2="69.13"/>
	<path d="M21.2,63.83c-0.13,0.65-0.85,3.52-1.64,5.31h3.28C22.05,67.34,21.33,64.48,21.2,63.83z"/>
	<path class="st4" d="M21.2,63.83c-0.13,0.65-0.85,3.52-1.64,5.31h3.28C22.05,67.34,21.33,64.48,21.2,63.83z"/>
	<line class="st4" x1="28.75" y1="129.36" x2="54.68" y2="106.79"/>
	<path d="M58.69,103.31c-0.58,0.33-3.21,1.66-5.08,2.25l2.15,2.48C56.59,106.26,58.28,103.83,58.69,103.31z"/>
	<path class="st4" d="M58.69,103.31c-0.58,0.33-3.21,1.66-5.08,2.25l2.15,2.48C56.59,106.26,58.28,103.83,58.69,103.31z"/>
	<line class="st4" x1="31.5" y1="135.93" x2="98.38" y2="135.93"/>
	<path d="M103.69,135.93c-0.65-0.13-3.52-0.85-5.31-1.64v3.28C100.17,136.78,103.04,136.06,103.69,135.93z"/>
	<path class="st4" d="M103.69,135.93c-0.65-0.13-3.52-0.85-5.31-1.64v3.28C100.17,136.78,103.04,136.06,103.69,135.93z"/>
	<line class="st4" x1="164.02" y1="89.56" x2="164.02" y2="29.33"/>
	<path d="M164.02,24.03c-0.13,0.65-0.85,3.52-1.64,5.31h3.28C164.87,27.54,164.15,24.68,164.02,24.03z"/>
	<path class="st4" d="M164.02,24.03c-0.13,0.65-0.85,3.52-1.64,5.31h3.28C164.87,27.54,164.15,24.68,164.02,24.03z"/>
	<line class="st4" x1="122.09" y1="49.76" x2="150.85" y2="26.98"/>
	<path d="M155.01,23.68c-0.59,0.31-3.29,1.52-5.18,2.02l2.03,2.58C152.78,26.53,154.58,24.18,155.01,23.68z"/>
	<path class="st5" d="M155.01,23.68c-0.59,0.31-3.29,1.52-5.18,2.02l2.03,2.58C152.78,26.53,154.58,24.18,155.01,23.68z"/>
	<line class="st4" x1="122.09" y1="129.36" x2="150.85" y2="106.58"/>
	<path d="M155.01,103.28c-0.59,0.31-3.29,1.52-5.18,2.02l2.03,2.58C152.78,106.13,154.58,103.78,155.01,103.28z"/>
	<path class="st5" d="M155.01,103.28c-0.59,0.31-3.29,1.52-5.18,2.02l2.03,2.58C152.78,106.13,154.58,103.78,155.01,103.28z"/>
	<line class="st4" x1="113.79" y1="129.36" x2="113.79" y2="69.13"/>
	<path d="M113.79,63.83c-0.13,0.65-0.85,3.52-1.64,5.31h3.28C114.64,67.34,113.92,64.48,113.79,63.83z"/>
	<path class="st4" d="M113.79,63.83c-0.13,0.65-0.85,3.52-1.64,5.31h3.28C114.64,67.34,113.92,64.48,113.79,63.83z"/>
</g>
</svg>
