<?xml version="1.0" encoding="utf-8"?>
<!-- Generator: Adobe Illustrator 23.0.5, SVG Export Plug-In . SVG Version: 6.00 Build 0)  -->
<svg version="1.1" id="图层_1" xmlns="http://www.w3.org/2000/svg" xmlns:xlink="http://www.w3.org/1999/xlink" x="0px" y="0px"
	 viewBox="0 0 340.16 141.73" style="enable-background:new 0 0 340.16 141.73;" xml:space="preserve">
<style type="text/css">
	.st0{fill:#FFFFFF;stroke:#000000;stroke-miterlimit:10;}
</style>
<g>
	<path class="st0" d="M133.1,53.6h-31.21c-3.13,0-5.67-2.54-5.67-5.67V31.08c0-3.13,2.54-5.67,5.67-5.67h31.21
		c3.13,0,5.67,2.54,5.67,5.67v16.85C138.77,51.06,136.23,53.6,133.1,53.6z"/>
	<path class="st0" d="M185.64,53.6h-31.21c-3.13,0-5.67-2.54-5.67-5.67V31.08c0-3.13,2.54-5.67,5.67-5.67h31.21
		c3.13,0,5.67,2.54,5.67,5.67v16.85C191.31,51.06,188.78,53.6,185.64,53.6z"/>
	<path class="st0" d="M238.19,53.6h-31.21c-3.13,0-5.67-2.54-5.67-5.67V31.08c0-3.13,2.54-5.67,5.67-5.67h31.21
		c3.13,0,5.67,2.54,5.67,5.67v16.85C243.86,51.06,241.32,53.6,238.19,53.6z"/>
	<g>
		<path d="M111.05,43.84v-8.67h1.22v8.67H111.05z M111.31,40.1v-1.16h5.13v1.16H111.31z M115.44,43.84v-8.67h1.22v8.67H115.44z"/>
		<path d="M118.56,43.84v-1.14h2.28v1.14H118.56z M118.68,37.14v-1.23l2.04-0.73v1.26L118.68,37.14z M120.72,43.84v-8.67h1.29v8.67
			H120.72z M121.89,43.84v-1.14h2.05v1.14H121.89z"/>
	</g>
	<g>
		<path d="M163.46,43.9v-8.67h1.22v8.67H163.46z M163.71,40.17v-1.16h5.13v1.16H163.71z M167.85,43.9v-8.67h1.22v8.67H167.85z"/>
		<path d="M170.98,43.9v-1.37c1.34-0.74,2.34-1.51,3-2.32s0.99-1.64,0.99-2.49c0-0.5-0.12-0.87-0.37-1.12s-0.61-0.37-1.11-0.37
			c-0.33,0-0.67,0.1-1.03,0.29s-0.67,0.45-0.92,0.76l-0.84-0.84c0.28-0.4,0.68-0.73,1.2-0.97s1.06-0.37,1.62-0.37
			c0.92,0,1.6,0.22,2.05,0.65s0.68,1.09,0.68,1.96c0,0.88-0.28,1.72-0.83,2.53s-1.4,1.58-2.54,2.33v1.32H170.98z M171.34,43.9v-1.14
			h5.27v1.14H171.34z"/>
	</g>
	<g>
		<path d="M216.13,43.84v-8.67h1.22v8.67H216.13z M216.39,40.1v-1.16h5.13v1.16H216.39z M220.53,43.84v-8.67h1.22v8.67H220.53z"/>
		<path d="M224.92,39.87l-0.15-0.79c0.63-0.09,1.15-0.21,1.55-0.38c0.4-0.17,0.69-0.37,0.88-0.61c0.19-0.24,0.28-0.5,0.28-0.8
			c0-0.35-0.11-0.63-0.34-0.83s-0.55-0.3-0.97-0.3c-0.31,0-0.64,0.08-0.99,0.23s-0.68,0.39-0.99,0.7l-0.84-0.84
			c0.37-0.42,0.81-0.73,1.3-0.92c0.49-0.19,1.04-0.29,1.65-0.29c0.79,0,1.4,0.17,1.83,0.5c0.43,0.34,0.65,0.81,0.65,1.44
			c0,0.52-0.17,0.97-0.5,1.36c-0.33,0.38-0.77,0.65-1.31,0.79v0.73H224.92z M225.74,43.96c-0.45,0-0.86-0.03-1.23-0.08
			s-0.7-0.12-0.99-0.21l0.15-1.17c0.25,0.07,0.53,0.14,0.84,0.22s0.7,0.12,1.18,0.12c0.63,0,1.11-0.13,1.46-0.38
			c0.35-0.25,0.52-0.61,0.52-1.06c0-0.33-0.1-0.6-0.3-0.83c-0.2-0.23-0.49-0.4-0.87-0.52c-0.38-0.12-0.84-0.18-1.38-0.18h-0.2
			l-0.15-0.79l1.87,0.15c0.69,0.05,1.25,0.28,1.68,0.67c0.43,0.4,0.65,0.94,0.65,1.62c0,0.77-0.28,1.37-0.85,1.8
			C227.57,43.75,226.77,43.96,225.74,43.96z"/>
	</g>
	<path d="M37.91,116.32v-0.95h1.9v0.95H37.91z M38.02,110.73v-1.03l1.7-0.61v1.05L38.02,110.73z M39.71,116.32v-7.22h1.08v7.22
		H39.71z M40.69,116.32v-0.95h1.71v0.95H40.69z"/>
	<path d="M61.55,116.32v-1.14c1.12-0.62,1.95-1.26,2.5-1.93s0.83-1.36,0.83-2.08c0-0.41-0.1-0.72-0.31-0.93
		c-0.2-0.21-0.51-0.31-0.93-0.31c-0.27,0-0.56,0.08-0.86,0.24s-0.55,0.37-0.77,0.64l-0.7-0.7c0.23-0.34,0.57-0.61,1-0.81
		s0.88-0.31,1.35-0.31c0.76,0,1.33,0.18,1.71,0.54c0.38,0.36,0.57,0.91,0.57,1.64c0,0.73-0.23,1.44-0.69,2.11
		c-0.46,0.67-1.17,1.32-2.11,1.94v1.1H61.55z M61.85,116.32v-0.95h4.39v0.95H61.85z"/>
	<path d="M86.36,112.91l-0.12-0.66c0.53-0.07,0.96-0.18,1.29-0.32c0.33-0.14,0.58-0.31,0.73-0.51c0.16-0.2,0.23-0.42,0.23-0.66
		c0-0.3-0.09-0.52-0.28-0.69c-0.19-0.16-0.46-0.25-0.81-0.25c-0.26,0-0.53,0.06-0.82,0.19c-0.29,0.13-0.56,0.32-0.82,0.58l-0.7-0.7
		c0.31-0.35,0.67-0.61,1.08-0.77c0.41-0.16,0.87-0.24,1.37-0.24c0.66,0,1.17,0.14,1.53,0.42c0.36,0.28,0.54,0.68,0.54,1.2
		c0,0.43-0.14,0.81-0.42,1.13s-0.64,0.54-1.09,0.66v0.61H86.36z M87.04,116.32c-0.37,0-0.71-0.02-1.02-0.07s-0.59-0.1-0.83-0.18
		l0.13-0.97c0.21,0.06,0.44,0.12,0.7,0.18c0.26,0.06,0.59,0.1,0.98,0.1c0.52,0,0.93-0.11,1.22-0.32s0.43-0.51,0.43-0.89
		c0-0.27-0.08-0.5-0.25-0.69c-0.17-0.19-0.41-0.33-0.72-0.43c-0.32-0.1-0.7-0.15-1.15-0.15h-0.16l-0.12-0.66l1.56,0.12
		c0.58,0.04,1.04,0.23,1.4,0.56c0.36,0.33,0.54,0.78,0.54,1.35c0,0.64-0.23,1.14-0.7,1.5C88.56,116.14,87.9,116.32,87.04,116.32z"/>
	<path d="M108.56,114.7l1.02-5.2h1.05l-1.03,5.2H108.56z M108.56,114.7l0.71-0.9h3v0.9H108.56z M112.17,116.32v-7.22h1.03v7.22
		H112.17z M113.09,114.7v-0.9h0.78v0.9H113.09z"/>
	<path d="M135.15,116.32c-0.78,0-1.38-0.19-1.81-0.56s-0.64-0.89-0.64-1.57h1.09c0,0.38,0.12,0.67,0.36,0.88
		c0.24,0.21,0.58,0.31,1.02,0.31c0.43,0,0.76-0.13,0.99-0.39c0.23-0.26,0.35-0.63,0.35-1.1c0-0.46-0.13-0.82-0.38-1.08
		c-0.26-0.26-0.62-0.38-1.08-0.38c-0.47,0-0.92,0.11-1.33,0.34l0.09-0.86c0.27-0.15,0.53-0.26,0.8-0.31
		c0.26-0.05,0.53-0.08,0.8-0.08c0.7,0,1.24,0.21,1.62,0.62s0.57,1,0.57,1.76c0,0.52-0.1,0.95-0.29,1.32
		c-0.19,0.36-0.47,0.64-0.83,0.83C136.11,116.22,135.67,116.32,135.15,116.32z M133.13,112.76l0.1-3.76h1.07l-0.17,3.13l-0.43,0.63
		H133.13z M133.72,109.94l-0.09-0.95h3.5v0.95H133.72z"/>
	<path d="M157.3,114.56l-0.89-1.02v-0.45c0-1.32,0.35-2.32,1.05-3s1.77-1.06,3.2-1.13l0.1,0.97c-2.15,0.09-3.22,1.06-3.22,2.9
		L157.3,114.56z M158.95,116.32c-0.81,0-1.44-0.24-1.88-0.72s-0.66-1.17-0.66-2.05l0.84,0.6v-1.32h0.38c0.1-0.38,0.3-0.67,0.61-0.87
		s0.67-0.31,1.11-0.31c0.63,0,1.12,0.19,1.46,0.58c0.34,0.39,0.51,0.94,0.51,1.65c0,0.77-0.2,1.37-0.62,1.8
		S159.71,116.32,158.95,116.32z M158.96,115.38c0.4,0,0.7-0.13,0.92-0.39c0.22-0.26,0.32-0.63,0.32-1.11c0-0.42-0.11-0.74-0.34-0.96
		c-0.23-0.23-0.55-0.34-0.97-0.34c-0.43,0-0.77,0.12-1.01,0.37c-0.24,0.24-0.36,0.59-0.36,1.04c0,0.47,0.12,0.82,0.36,1.05
		C158.13,115.27,158.48,115.38,158.96,115.38z"/>
	<path d="M179.24,110.06v-0.97h5.3l-0.72,0.97H179.24z M179.24,111.63v-2.38h1.05v2.38H179.24z M180.94,116.32l2.48-7.22h1.11
		l-2.48,7.22H180.94z"/>
	<path d="M205.51,116.32c-0.78,0-1.39-0.18-1.82-0.55s-0.64-0.88-0.64-1.54c0-0.61,0.21-1.08,0.64-1.41c0.43-0.33,1.04-0.5,1.82-0.5
		s1.39,0.17,1.82,0.5c0.43,0.33,0.64,0.8,0.64,1.41c0,0.66-0.21,1.17-0.64,1.54S206.3,116.32,205.51,116.32z M205.51,112.42
		c-0.72,0-1.27-0.15-1.67-0.45s-0.59-0.71-0.59-1.25c0-0.58,0.2-1.03,0.59-1.35s0.95-0.48,1.67-0.48c0.72,0,1.28,0.16,1.67,0.48
		c0.39,0.32,0.59,0.77,0.59,1.35c0,0.54-0.2,0.96-0.59,1.25C206.79,112.27,206.23,112.42,205.51,112.42z M205.51,115.38
		c0.44,0,0.78-0.11,1.01-0.32s0.36-0.51,0.36-0.89c0-0.41-0.12-0.72-0.36-0.95s-0.58-0.34-1.01-0.34s-0.78,0.11-1.01,0.34
		s-0.36,0.54-0.36,0.95c0,0.38,0.12,0.67,0.36,0.89S205.07,115.38,205.51,115.38z M205.51,111.91c0.37,0,0.66-0.09,0.86-0.26
		c0.2-0.17,0.31-0.42,0.31-0.72c0-0.35-0.1-0.62-0.31-0.81c-0.2-0.19-0.49-0.28-0.86-0.28c-0.37,0-0.66,0.1-0.86,0.28
		c-0.2,0.19-0.31,0.46-0.31,0.81c0,0.31,0.1,0.55,0.31,0.72C204.85,111.83,205.14,111.91,205.51,111.91z M204.67,112.63v-0.52h1.7
		v0.52H204.67z"/>
	<path d="M228.65,113.64c-0.63,0-1.12-0.19-1.46-0.58c-0.34-0.39-0.51-0.94-0.51-1.65c0-0.77,0.21-1.37,0.62-1.8s1-0.64,1.75-0.64
		c0.81,0,1.44,0.24,1.88,0.72s0.66,1.17,0.66,2.05l-0.84-0.6v1.32h-0.38c-0.1,0.38-0.3,0.67-0.61,0.87S229.09,113.64,228.65,113.64z
		 M227.34,116.32l-0.1-0.97c2.15-0.09,3.22-1.06,3.22-2.9v-2l1.13,1.29v0.24c0,1.38-0.35,2.43-1.05,3.15
		C229.84,115.85,228.77,116.25,227.34,116.32z M229.11,112.71c0.43,0,0.77-0.12,1-0.37c0.23-0.24,0.35-0.59,0.35-1.04
		c0-0.47-0.12-0.82-0.36-1.05c-0.24-0.23-0.59-0.35-1.07-0.35c-0.41,0-0.72,0.13-0.94,0.39c-0.22,0.26-0.33,0.63-0.33,1.11
		c0,0.42,0.12,0.74,0.35,0.96C228.35,112.59,228.68,112.71,229.11,112.71z"/>
	<g>
		<polygon points="250.26,108.99 249.18,108.99 247.48,109.6 247.48,110.63 249.18,110.04 249.18,115.27 247.38,115.27 
			247.38,116.22 249.18,116.22 249.28,116.22 250.16,116.22 250.26,116.22 251.87,116.22 251.87,115.27 250.26,115.27 		"/>
		<path d="M255.67,108.89c-1.64,0-2.46,1.25-2.46,3.76c0,2.44,0.82,3.66,2.46,3.66s2.46-1.22,2.46-3.66
			C258.13,110.15,257.31,108.89,255.67,108.89z M255.67,115.38c-0.92,0-1.37-0.91-1.37-2.73c0-1.89,0.46-2.83,1.37-2.83
			c0.92,0,1.37,0.94,1.37,2.83C257.04,114.47,256.59,115.38,255.67,115.38z"/>
	</g>
	<g>
		<polygon points="273.96,109.1 272.88,109.1 271.18,109.71 271.18,110.73 272.88,110.14 272.88,115.37 271.08,115.37 
			271.08,116.32 272.88,116.32 272.99,116.32 273.86,116.32 273.96,116.32 275.57,116.32 275.57,115.37 273.96,115.37 		"/>
		<polygon points="280.07,115.37 280.07,109.1 278.99,109.1 277.29,109.71 277.29,110.73 278.99,110.14 278.99,115.37 
			277.19,115.37 277.19,116.32 278.99,116.32 279.09,116.32 279.96,116.32 280.07,116.32 281.67,116.32 281.67,115.37 		"/>
	</g>
	<g>
		<polygon points="297.47,109.1 296.39,109.1 294.7,109.71 294.7,110.73 296.39,110.14 296.39,115.37 294.59,115.37 294.59,116.32 
			296.39,116.32 296.5,116.32 297.37,116.32 297.47,116.32 299.08,116.32 299.08,115.37 297.47,115.37 		"/>
		<path d="M302.29,115.37v-0.15c0.95-0.62,1.65-1.27,2.11-1.94c0.46-0.67,0.69-1.38,0.69-2.11c0-0.73-0.19-1.27-0.57-1.64
			c-0.38-0.36-0.95-0.54-1.71-0.54c-0.47,0-0.92,0.1-1.35,0.31c-0.43,0.2-0.76,0.47-1,0.81l0.7,0.7c0.21-0.26,0.47-0.48,0.77-0.64
			c0.3-0.16,0.58-0.24,0.86-0.24c0.41,0,0.72,0.1,0.93,0.31c0.2,0.21,0.31,0.52,0.31,0.93c0,0.71-0.28,1.4-0.83,2.08
			s-1.38,1.32-2.5,1.93v1.14h0.31h1.28h3.11v-0.95H302.29z"/>
	</g>
	<g>
		<rect x="28.35" y="80.95" class="st0" width="23.62" height="23.62"/>
		<path d="M40.16,89.05c-1.64,0-2.46,1.25-2.46,3.76c0,2.44,0.82,3.66,2.46,3.66c1.64,0,2.46-1.22,2.46-3.66
			C42.62,90.3,41.8,89.05,40.16,89.05z M40.16,95.54c-0.92,0-1.37-0.91-1.37-2.73c0-1.89,0.46-2.83,1.37-2.83s1.37,0.94,1.37,2.83
			C41.53,94.63,41.07,95.54,40.16,95.54z"/>
	</g>
	<g>
		<rect x="51.97" y="80.95" class="st0" width="23.62" height="23.62"/>
		<path d="M63.78,89.05c-1.64,0-2.46,1.25-2.46,3.76c0,2.44,0.82,3.66,2.46,3.66c1.64,0,2.46-1.22,2.46-3.66
			C66.24,90.3,65.42,89.05,63.78,89.05z M63.78,95.54c-0.92,0-1.37-0.91-1.37-2.73c0-1.89,0.46-2.83,1.37-2.83s1.37,0.94,1.37,2.83
			C65.15,94.63,64.7,95.54,63.78,95.54z"/>
	</g>
	<g>
		<rect x="75.59" y="80.95" class="st0" width="23.62" height="23.62"/>
		<path d="M87.4,89.05c-1.64,0-2.46,1.25-2.46,3.76c0,2.44,0.82,3.66,2.46,3.66c1.64,0,2.46-1.22,2.46-3.66
			C89.86,90.3,89.04,89.05,87.4,89.05z M87.4,95.54c-0.92,0-1.37-0.91-1.37-2.73c0-1.89,0.46-2.83,1.37-2.83s1.37,0.94,1.37,2.83
			C88.77,94.63,88.32,95.54,87.4,95.54z"/>
	</g>
	<g>
		<rect x="99.21" y="80.95" class="st0" width="23.62" height="23.62"/>
		<path d="M111.02,89.05c-1.64,0-2.46,1.25-2.46,3.76c0,2.44,0.82,3.66,2.46,3.66c1.64,0,2.46-1.22,2.46-3.66
			C113.49,90.3,112.66,89.05,111.02,89.05z M111.02,95.54c-0.92,0-1.37-0.91-1.37-2.73c0-1.89,0.46-2.83,1.37-2.83
			s1.37,0.94,1.37,2.83C112.4,94.63,111.94,95.54,111.02,95.54z"/>
	</g>
	<g>
		<rect x="122.83" y="80.95" class="st0" width="23.62" height="23.62"/>
		<path d="M134.65,89.05c-1.64,0-2.46,1.25-2.46,3.76c0,2.44,0.82,3.66,2.46,3.66c1.64,0,2.46-1.22,2.46-3.66
			C137.11,90.3,136.29,89.05,134.65,89.05z M134.65,95.54c-0.92,0-1.37-0.91-1.37-2.73c0-1.89,0.46-2.83,1.37-2.83
			s1.37,0.94,1.37,2.83C136.02,94.63,135.56,95.54,134.65,95.54z"/>
	</g>
	<g>
		<rect x="146.46" y="80.95" class="st0" width="23.62" height="23.62"/>
		<path d="M158.27,89.05c-1.64,0-2.46,1.25-2.46,3.76c0,2.44,0.82,3.66,2.46,3.66s2.46-1.22,2.46-3.66
			C160.73,90.3,159.91,89.05,158.27,89.05z M158.27,95.54c-0.92,0-1.37-0.91-1.37-2.73c0-1.89,0.46-2.83,1.37-2.83
			s1.37,0.94,1.37,2.83C159.64,94.63,159.18,95.54,158.27,95.54z"/>
	</g>
	<g>
		<rect x="170.08" y="80.95" class="st0" width="23.62" height="23.62"/>
		<path d="M181.89,89.05c-1.64,0-2.46,1.25-2.46,3.76c0,2.44,0.82,3.66,2.46,3.66c1.64,0,2.46-1.22,2.46-3.66
			C184.35,90.3,183.53,89.05,181.89,89.05z M181.89,95.54c-0.92,0-1.37-0.91-1.37-2.73c0-1.89,0.46-2.83,1.37-2.83
			s1.37,0.94,1.37,2.83C183.26,94.63,182.81,95.54,181.89,95.54z"/>
	</g>
	<g>
		<rect x="193.7" y="80.95" class="st0" width="23.62" height="23.62"/>
		<path d="M205.51,89.05c-1.64,0-2.46,1.25-2.46,3.76c0,2.44,0.82,3.66,2.46,3.66s2.46-1.22,2.46-3.66
			C207.97,90.3,207.15,89.05,205.51,89.05z M205.51,95.54c-0.92,0-1.37-0.91-1.37-2.73c0-1.89,0.46-2.83,1.37-2.83
			s1.37,0.94,1.37,2.83C206.89,94.63,206.43,95.54,205.51,95.54z"/>
	</g>
	<g>
		<rect x="217.32" y="80.95" class="st0" width="23.62" height="23.62"/>
		<path d="M229.13,89.05c-1.64,0-2.46,1.25-2.46,3.76c0,2.44,0.82,3.66,2.46,3.66c1.64,0,2.46-1.22,2.46-3.66
			C231.6,90.3,230.78,89.05,229.13,89.05z M229.13,95.54c-0.92,0-1.37-0.91-1.37-2.73c0-1.89,0.46-2.83,1.37-2.83
			s1.37,0.94,1.37,2.83C230.51,94.63,230.05,95.54,229.13,95.54z"/>
	</g>
	<g>
		<rect x="240.94" y="80.95" class="st0" width="23.62" height="23.62"/>
		<path d="M252.76,89.05c-1.64,0-2.46,1.25-2.46,3.76c0,2.44,0.82,3.66,2.46,3.66s2.46-1.22,2.46-3.66
			C255.22,90.3,254.4,89.05,252.76,89.05z M252.76,95.54c-0.92,0-1.37-0.91-1.37-2.73c0-1.89,0.46-2.83,1.37-2.83
			s1.37,0.94,1.37,2.83C254.13,94.63,253.67,95.54,252.76,95.54z"/>
	</g>
	<g>
		<rect x="264.57" y="80.95" class="st0" width="23.62" height="23.62"/>
		<path d="M276.38,89.05c-1.64,0-2.46,1.25-2.46,3.76c0,2.44,0.82,3.66,2.46,3.66c1.64,0,2.46-1.22,2.46-3.66
			C278.84,90.3,278.02,89.05,276.38,89.05z M276.38,95.54c-0.92,0-1.37-0.91-1.37-2.73c0-1.89,0.46-2.83,1.37-2.83
			s1.37,0.94,1.37,2.83C277.75,94.63,277.29,95.54,276.38,95.54z"/>
	</g>
	<g>
		<rect x="288.19" y="80.95" class="st0" width="23.62" height="23.62"/>
		<path d="M300,89.05c-1.64,0-2.46,1.25-2.46,3.76c0,2.44,0.82,3.66,2.46,3.66s2.46-1.22,2.46-3.66
			C302.46,90.3,301.64,89.05,300,89.05z M300,95.54c-0.92,0-1.37-0.91-1.37-2.73c0-1.89,0.46-2.83,1.37-2.83s1.37,0.94,1.37,2.83
			C301.37,94.63,300.92,95.54,300,95.54z"/>
	</g>
</g>
</svg>
