<?xml version="1.0" encoding="utf-8"?>
<!-- Generator: Adobe Illustrator 23.0.5, SVG Export Plug-In . SVG Version: 6.00 Build 0)  -->
<svg version="1.1" id="图层_1" xmlns="http://www.w3.org/2000/svg" xmlns:xlink="http://www.w3.org/1999/xlink" x="0px" y="0px"
	 viewBox="0 0 340.16 221.1" style="enable-background:new 0 0 340.16 221.1;" xml:space="preserve">
<style type="text/css">
	.st0{fill:#FFFFFF;stroke:#000000;stroke-miterlimit:10;}
	.st1{fill:none;stroke:#000000;stroke-miterlimit:10;}
</style>
<g>
	<path class="st0" d="M133,101.23h-31.21c-3.13,0-5.67-2.54-5.67-5.67V78.72c0-3.13,2.54-5.67,5.67-5.67H133
		c3.13,0,5.67,2.54,5.67,5.67v16.85C138.67,98.69,136.13,101.23,133,101.23z"/>
	<path class="st0" d="M185.54,101.23h-31.21c-3.13,0-5.67-2.54-5.67-5.67V78.72c0-3.13,2.54-5.67,5.67-5.67h31.21
		c3.13,0,5.67,2.54,5.67,5.67v16.85C191.21,98.69,188.68,101.23,185.54,101.23z"/>
	<path class="st0" d="M238.09,101.23h-31.21c-3.13,0-5.67-2.54-5.67-5.67V78.72c0-3.13,2.54-5.67,5.67-5.67h31.21
		c3.13,0,5.67,2.54,5.67,5.67v16.85C243.76,98.69,241.22,101.23,238.09,101.23z"/>
	<g>
		<path d="M110.95,91.47v-8.67h1.22v8.67H110.95z M111.21,87.74v-1.16h5.13v1.16H111.21z M115.34,91.47v-8.67h1.22v8.67H115.34z"/>
		<path d="M118.46,91.47v-1.14h2.28v1.14H118.46z M118.58,84.77v-1.23l2.04-0.73v1.26L118.58,84.77z M120.62,91.47v-8.67h1.29v8.67
			H120.62z M121.79,91.47v-1.14h2.05v1.14H121.79z"/>
	</g>
	<g>
		<path d="M163.36,91.53v-8.67h1.22v8.67H163.36z M163.61,87.8v-1.16h5.13v1.16H163.61z M167.75,91.53v-8.67h1.22v8.67H167.75z"/>
		<path d="M170.88,91.53v-1.37c1.34-0.74,2.34-1.51,3-2.32s0.99-1.64,0.99-2.49c0-0.5-0.12-0.87-0.37-1.12
			c-0.24-0.25-0.61-0.37-1.11-0.37c-0.33,0-0.67,0.1-1.03,0.29c-0.36,0.19-0.67,0.45-0.92,0.76l-0.84-0.84
			c0.28-0.4,0.68-0.73,1.2-0.97s1.06-0.37,1.62-0.37c0.92,0,1.6,0.22,2.05,0.65s0.68,1.09,0.68,1.96c0,0.88-0.28,1.72-0.83,2.53
			c-0.56,0.81-1.4,1.58-2.54,2.33v1.32H170.88z M171.24,91.53V90.4h5.27v1.14H171.24z"/>
	</g>
	<g>
		<path d="M216.03,91.47v-8.67h1.22v8.67H216.03z M216.29,87.74v-1.16h5.13v1.16H216.29z M220.43,91.47v-8.67h1.22v8.67H220.43z"/>
		<path d="M224.82,87.51l-0.15-0.79c0.63-0.09,1.15-0.21,1.55-0.38c0.4-0.17,0.69-0.37,0.88-0.61c0.19-0.24,0.28-0.5,0.28-0.8
			c0-0.35-0.11-0.63-0.34-0.83c-0.23-0.2-0.55-0.3-0.97-0.3c-0.31,0-0.64,0.08-0.99,0.23c-0.35,0.15-0.68,0.39-0.99,0.7l-0.84-0.84
			c0.37-0.42,0.81-0.73,1.3-0.92c0.49-0.19,1.04-0.29,1.65-0.29c0.79,0,1.4,0.17,1.83,0.5c0.43,0.34,0.65,0.81,0.65,1.44
			c0,0.52-0.17,0.97-0.5,1.36c-0.33,0.38-0.77,0.65-1.31,0.79v0.73H224.82z M225.64,91.6c-0.45,0-0.86-0.03-1.23-0.08
			c-0.37-0.05-0.7-0.12-0.99-0.21l0.15-1.17c0.25,0.07,0.53,0.14,0.84,0.22c0.31,0.08,0.7,0.12,1.18,0.12
			c0.63,0,1.11-0.13,1.46-0.38c0.35-0.25,0.52-0.61,0.52-1.06c0-0.33-0.1-0.6-0.3-0.83c-0.2-0.23-0.49-0.4-0.87-0.52
			c-0.38-0.12-0.84-0.18-1.38-0.18h-0.2l-0.15-0.79l1.87,0.15c0.69,0.05,1.25,0.28,1.68,0.67c0.43,0.4,0.65,0.94,0.65,1.62
			c0,0.77-0.28,1.37-0.85,1.8C227.47,91.38,226.67,91.6,225.64,91.6z"/>
	</g>
	<path d="M37.81,197.61v-0.95h1.9v0.95H37.81z M37.92,192.03V191l1.7-0.61v1.05L37.92,192.03z M39.61,197.61v-7.22h1.08v7.22H39.61z
		 M40.59,197.61v-0.95h1.71v0.95H40.59z"/>
	<path d="M61.45,197.61v-1.14c1.12-0.62,1.95-1.26,2.5-1.93s0.83-1.36,0.83-2.08c0-0.41-0.1-0.72-0.31-0.93
		c-0.2-0.21-0.51-0.31-0.93-0.31c-0.27,0-0.56,0.08-0.86,0.24c-0.3,0.16-0.55,0.37-0.77,0.64l-0.7-0.7c0.23-0.34,0.57-0.61,1-0.81
		c0.43-0.2,0.88-0.31,1.35-0.31c0.76,0,1.33,0.18,1.71,0.54c0.38,0.36,0.57,0.91,0.57,1.64c0,0.73-0.23,1.44-0.69,2.11
		c-0.46,0.67-1.17,1.32-2.11,1.94v1.1H61.45z M61.75,197.61v-0.95h4.39v0.95H61.75z"/>
	<path d="M86.26,194.2l-0.12-0.66c0.53-0.07,0.96-0.18,1.29-0.32s0.58-0.31,0.73-0.51s0.23-0.42,0.23-0.66
		c0-0.29-0.09-0.52-0.28-0.69c-0.19-0.16-0.46-0.25-0.81-0.25c-0.26,0-0.53,0.06-0.82,0.19c-0.29,0.13-0.56,0.32-0.82,0.58l-0.7-0.7
		c0.31-0.35,0.67-0.61,1.08-0.77s0.87-0.24,1.37-0.24c0.66,0,1.17,0.14,1.53,0.42c0.36,0.28,0.54,0.68,0.54,1.2
		c0,0.43-0.14,0.81-0.42,1.13c-0.28,0.32-0.64,0.54-1.09,0.66v0.61H86.26z M86.94,197.61c-0.37,0-0.71-0.02-1.02-0.07
		c-0.31-0.04-0.59-0.1-0.83-0.18l0.13-0.97c0.21,0.06,0.44,0.12,0.7,0.18c0.26,0.06,0.59,0.1,0.98,0.1c0.52,0,0.93-0.11,1.22-0.32
		c0.29-0.21,0.43-0.51,0.43-0.89c0-0.27-0.08-0.5-0.25-0.69s-0.41-0.33-0.72-0.43c-0.32-0.1-0.7-0.15-1.15-0.15h-0.16l-0.12-0.66
		l1.56,0.12c0.58,0.04,1.04,0.23,1.4,0.56c0.36,0.33,0.54,0.78,0.54,1.35c0,0.64-0.23,1.14-0.7,1.5
		C88.46,197.43,87.8,197.61,86.94,197.61z"/>
	<path d="M108.46,195.99l1.02-5.2h1.05l-1.03,5.2H108.46z M108.46,195.99l0.71-0.9h3v0.9H108.46z M112.07,197.61v-7.22h1.03v7.22
		H112.07z M112.99,195.99v-0.9h0.78v0.9H112.99z"/>
	<path d="M135.05,197.61c-0.78,0-1.38-0.19-1.81-0.56c-0.43-0.37-0.64-0.89-0.64-1.57h1.09c0,0.38,0.12,0.67,0.36,0.88
		c0.24,0.21,0.58,0.31,1.02,0.31c0.43,0,0.76-0.13,0.99-0.39c0.23-0.26,0.35-0.63,0.35-1.1c0-0.46-0.13-0.82-0.38-1.08
		c-0.26-0.26-0.62-0.38-1.08-0.38c-0.47,0-0.92,0.11-1.33,0.34l0.09-0.86c0.27-0.15,0.53-0.26,0.8-0.31
		c0.26-0.05,0.53-0.08,0.8-0.08c0.7,0,1.24,0.21,1.62,0.62s0.57,1,0.57,1.76c0,0.52-0.1,0.95-0.29,1.32
		c-0.19,0.36-0.47,0.64-0.83,0.83C136.01,197.52,135.56,197.61,135.05,197.61z M133.03,194.05l0.1-3.76h1.07l-0.17,3.13l-0.43,0.63
		H133.03z M133.62,191.23l-0.09-0.95h3.5v0.95H133.62z"/>
	<path d="M157.2,195.86l-0.89-1.02v-0.45c0-1.32,0.35-2.32,1.05-3s1.77-1.06,3.2-1.13l0.1,0.97c-2.15,0.09-3.22,1.06-3.22,2.9
		L157.2,195.86z M158.85,197.61c-0.81,0-1.44-0.24-1.88-0.72c-0.44-0.48-0.66-1.17-0.66-2.05l0.84,0.6v-1.32h0.38
		c0.1-0.38,0.3-0.67,0.61-0.87c0.3-0.2,0.67-0.31,1.11-0.31c0.63,0,1.12,0.19,1.46,0.58c0.34,0.39,0.51,0.94,0.51,1.65
		c0,0.77-0.2,1.37-0.62,1.8S159.61,197.61,158.85,197.61z M158.86,196.68c0.4,0,0.7-0.13,0.92-0.39c0.22-0.26,0.32-0.63,0.32-1.11
		c0-0.42-0.11-0.74-0.34-0.96c-0.23-0.23-0.55-0.34-0.97-0.34c-0.43,0-0.77,0.12-1.01,0.37c-0.24,0.24-0.36,0.59-0.36,1.04
		c0,0.47,0.12,0.82,0.36,1.05S158.38,196.68,158.86,196.68z"/>
	<path d="M179.14,191.36v-0.97h5.3l-0.72,0.97H179.14z M179.14,192.92v-2.38h1.05v2.38H179.14z M180.84,197.61l2.48-7.22h1.11
		l-2.48,7.22H180.84z"/>
	<path d="M205.41,197.61c-0.78,0-1.39-0.18-1.82-0.55s-0.64-0.88-0.64-1.54c0-0.61,0.21-1.08,0.64-1.41s1.04-0.5,1.82-0.5
		s1.39,0.17,1.82,0.5s0.64,0.8,0.64,1.41c0,0.66-0.21,1.17-0.64,1.54S206.19,197.61,205.41,197.61z M205.41,193.72
		c-0.72,0-1.27-0.15-1.67-0.45c-0.4-0.3-0.59-0.71-0.59-1.25c0-0.58,0.2-1.03,0.59-1.35s0.95-0.48,1.67-0.48
		c0.72,0,1.28,0.16,1.67,0.48c0.39,0.32,0.59,0.77,0.59,1.35c0,0.54-0.2,0.96-0.59,1.25C206.69,193.57,206.13,193.72,205.41,193.72z
		 M205.41,196.68c0.44,0,0.78-0.11,1.01-0.32c0.24-0.21,0.36-0.51,0.36-0.89c0-0.41-0.12-0.72-0.36-0.95s-0.58-0.34-1.01-0.34
		s-0.78,0.11-1.01,0.34s-0.36,0.54-0.36,0.95c0,0.38,0.12,0.67,0.36,0.89C204.64,196.57,204.97,196.68,205.41,196.68z
		 M205.41,193.21c0.37,0,0.66-0.09,0.86-0.26c0.2-0.17,0.31-0.42,0.31-0.72c0-0.35-0.1-0.62-0.31-0.81
		c-0.2-0.19-0.49-0.28-0.86-0.28c-0.37,0-0.66,0.1-0.86,0.28c-0.2,0.19-0.31,0.46-0.31,0.81c0,0.31,0.1,0.55,0.31,0.72
		S205.04,193.21,205.41,193.21z M204.57,193.92v-0.52h1.7v0.52H204.57z"/>
	<path d="M228.55,194.94c-0.63,0-1.12-0.19-1.46-0.58c-0.34-0.39-0.51-0.94-0.51-1.65c0-0.77,0.21-1.37,0.62-1.8s1-0.64,1.75-0.64
		c0.81,0,1.44,0.24,1.88,0.72c0.44,0.48,0.66,1.17,0.66,2.05l-0.84-0.6v1.32h-0.38c-0.1,0.38-0.3,0.67-0.61,0.87
		C229.36,194.83,228.99,194.94,228.55,194.94z M227.24,197.61l-0.1-0.97c2.15-0.09,3.22-1.06,3.22-2.9v-2l1.13,1.29v0.24
		c0,1.38-0.35,2.43-1.05,3.15S228.67,197.54,227.24,197.61z M229.01,194c0.43,0,0.77-0.12,1-0.37c0.23-0.24,0.35-0.59,0.35-1.04
		c0-0.47-0.12-0.82-0.36-1.05c-0.24-0.23-0.59-0.35-1.07-0.35c-0.41,0-0.72,0.13-0.94,0.39c-0.22,0.26-0.33,0.63-0.33,1.11
		c0,0.42,0.12,0.74,0.35,0.96S228.58,194,229.01,194z"/>
	<g>
		<polygon points="250.16,190.29 249.08,190.29 247.38,190.9 247.38,191.93 249.08,191.34 249.08,196.56 247.28,196.56 
			247.28,197.51 249.08,197.51 249.18,197.51 250.06,197.51 250.16,197.51 251.77,197.51 251.77,196.56 250.16,196.56 		"/>
		<path d="M255.57,190.19c-1.64,0-2.46,1.25-2.46,3.76c0,2.44,0.82,3.66,2.46,3.66c1.64,0,2.46-1.22,2.46-3.66
			C258.03,191.44,257.21,190.19,255.57,190.19z M255.57,196.68c-0.92,0-1.37-0.91-1.37-2.73c0-1.89,0.46-2.83,1.37-2.83
			s1.37,0.94,1.37,2.83C256.94,195.77,256.49,196.68,255.57,196.68z"/>
	</g>
	<g>
		<polygon points="273.86,190.39 272.78,190.39 271.08,191 271.08,192.03 272.78,191.44 272.78,196.67 270.98,196.67 270.98,197.61 
			272.78,197.61 272.88,197.61 273.76,197.61 273.86,197.61 275.47,197.61 275.47,196.67 273.86,196.67 		"/>
		<polygon points="279.97,196.67 279.97,190.39 278.89,190.39 277.19,191 277.19,192.03 278.89,191.44 278.89,196.67 277.09,196.67 
			277.09,197.61 278.89,197.61 278.99,197.61 279.86,197.61 279.97,197.61 281.57,197.61 281.57,196.67 		"/>
	</g>
	<g>
		<polygon points="297.37,190.39 296.29,190.39 294.59,191 294.59,192.03 296.29,191.44 296.29,196.67 294.49,196.67 294.49,197.61 
			296.29,197.61 296.4,197.61 297.27,197.61 297.37,197.61 298.98,197.61 298.98,196.67 297.37,196.67 		"/>
		<path d="M302.19,196.67v-0.15c0.95-0.62,1.65-1.27,2.11-1.94s0.69-1.38,0.69-2.11c0-0.73-0.19-1.27-0.57-1.64
			c-0.38-0.36-0.95-0.54-1.71-0.54c-0.47,0-0.92,0.1-1.35,0.31c-0.43,0.2-0.76,0.47-1,0.81l0.7,0.7c0.21-0.26,0.47-0.48,0.77-0.64
			c0.3-0.16,0.58-0.24,0.86-0.24c0.41,0,0.72,0.1,0.93,0.31s0.31,0.52,0.31,0.93c0,0.71-0.28,1.4-0.83,2.08s-1.38,1.32-2.5,1.93
			v1.14h0.31h1.28h3.11v-0.95H302.19z"/>
	</g>
	<g>
		<rect x="51.87" y="162.24" class="st0" width="23.62" height="23.62"/>
		<path d="M63.68,170.34c-1.64,0-2.46,1.25-2.46,3.76c0,2.44,0.82,3.66,2.46,3.66c1.64,0,2.46-1.22,2.46-3.66
			C66.14,171.6,65.32,170.34,63.68,170.34z M63.68,176.83c-0.92,0-1.37-0.91-1.37-2.73c0-1.89,0.46-2.83,1.37-2.83
			s1.37,0.94,1.37,2.83C65.05,175.92,64.59,176.83,63.68,176.83z"/>
	</g>
	<g>
		<rect x="99.11" y="162.24" class="st0" width="23.62" height="23.62"/>
		<path d="M110.92,170.34c-1.64,0-2.46,1.25-2.46,3.76c0,2.44,0.82,3.66,2.46,3.66c1.64,0,2.46-1.22,2.46-3.66
			C113.38,171.6,112.56,170.34,110.92,170.34z M110.92,176.83c-0.92,0-1.37-0.91-1.37-2.73c0-1.89,0.46-2.83,1.37-2.83
			s1.37,0.94,1.37,2.83C112.3,175.92,111.84,176.83,110.92,176.83z"/>
	</g>
	<g>
		<rect x="122.73" y="162.24" class="st0" width="23.62" height="23.62"/>
		<path d="M134.55,170.34c-1.64,0-2.46,1.25-2.46,3.76c0,2.44,0.82,3.66,2.46,3.66c1.64,0,2.46-1.22,2.46-3.66
			C137.01,171.6,136.19,170.34,134.55,170.34z M134.55,176.83c-0.92,0-1.37-0.91-1.37-2.73c0-1.89,0.46-2.83,1.37-2.83
			s1.37,0.94,1.37,2.83C135.92,175.92,135.46,176.83,134.55,176.83z"/>
	</g>
	<g>
		<rect x="146.36" y="162.24" class="st0" width="23.62" height="23.62"/>
		<path d="M158.17,170.34c-1.64,0-2.46,1.25-2.46,3.76c0,2.44,0.82,3.66,2.46,3.66s2.46-1.22,2.46-3.66
			C160.63,171.6,159.81,170.34,158.17,170.34z M158.17,176.83c-0.92,0-1.37-0.91-1.37-2.73c0-1.89,0.46-2.83,1.37-2.83
			s1.37,0.94,1.37,2.83C159.54,175.92,159.08,176.83,158.17,176.83z"/>
	</g>
	<g>
		<rect x="169.98" y="162.24" class="st0" width="23.62" height="23.62"/>
		<path d="M181.79,170.34c-1.64,0-2.46,1.25-2.46,3.76c0,2.44,0.82,3.66,2.46,3.66c1.64,0,2.46-1.22,2.46-3.66
			C184.25,171.6,183.43,170.34,181.79,170.34z M181.79,176.83c-0.92,0-1.37-0.91-1.37-2.73c0-1.89,0.46-2.83,1.37-2.83
			s1.37,0.94,1.37,2.83C183.16,175.92,182.7,176.83,181.79,176.83z"/>
	</g>
	<g>
		<rect x="217.22" y="162.24" class="st0" width="23.62" height="23.62"/>
		<path d="M229.03,170.34c-1.64,0-2.46,1.25-2.46,3.76c0,2.44,0.82,3.66,2.46,3.66c1.64,0,2.46-1.22,2.46-3.66
			C231.5,171.6,230.67,170.34,229.03,170.34z M229.03,176.83c-0.92,0-1.37-0.91-1.37-2.73c0-1.89,0.46-2.83,1.37-2.83
			s1.37,0.94,1.37,2.83C230.41,175.92,229.95,176.83,229.03,176.83z"/>
	</g>
	<g>
		<rect x="240.84" y="162.24" class="st0" width="23.62" height="23.62"/>
		<path d="M252.66,170.34c-1.64,0-2.46,1.25-2.46,3.76c0,2.44,0.82,3.66,2.46,3.66s2.46-1.22,2.46-3.66
			C255.12,171.6,254.3,170.34,252.66,170.34z M252.66,176.83c-0.92,0-1.37-0.91-1.37-2.73c0-1.89,0.46-2.83,1.37-2.83
			s1.37,0.94,1.37,2.83C254.03,175.92,253.57,176.83,252.66,176.83z"/>
	</g>
	<g>
		<rect x="264.47" y="162.24" class="st0" width="23.62" height="23.62"/>
		<path d="M276.28,170.34c-1.64,0-2.46,1.25-2.46,3.76c0,2.44,0.82,3.66,2.46,3.66c1.64,0,2.46-1.22,2.46-3.66
			C278.74,171.6,277.92,170.34,276.28,170.34z M276.28,176.83c-0.92,0-1.37-0.91-1.37-2.73c0-1.89,0.46-2.83,1.37-2.83
			s1.37,0.94,1.37,2.83C277.65,175.92,277.19,176.83,276.28,176.83z"/>
	</g>
	<g>
		<rect x="193.6" y="162.24" class="st0" width="23.62" height="23.62"/>
		<path d="M203.17,177.67v-0.95h1.9v0.95H203.17z M203.27,172.08v-1.03l1.7-0.61v1.05L203.27,172.08z M204.97,177.67v-7.22h1.08
			v7.22H204.97z M205.95,177.67v-0.95h1.71v0.95H205.95z"/>
	</g>
	<g>
		<rect x="28.25" y="162.24" class="st0" width="23.62" height="23.62"/>
		<path d="M40.06,170.34c-1.64,0-2.46,1.25-2.46,3.76c0,2.44,0.82,3.66,2.46,3.66c1.64,0,2.46-1.22,2.46-3.66
			C42.52,171.6,41.7,170.34,40.06,170.34z M40.06,176.83c-0.92,0-1.37-0.91-1.37-2.73c0-1.89,0.46-2.83,1.37-2.83
			s1.37,0.94,1.37,2.83C41.43,175.92,40.97,176.83,40.06,176.83z"/>
	</g>
	<g>
		<rect x="288.09" y="162.24" class="st0" width="23.62" height="23.62"/>
		<path d="M297.66,177.67v-0.95h1.9v0.95H297.66z M297.76,172.08v-1.03l1.7-0.61v1.05L297.76,172.08z M299.46,177.67v-7.22h1.08
			v7.22H299.46z M300.43,177.67v-0.95h1.71v0.95H300.43z"/>
	</g>
	<g>
		<rect x="75.49" y="162.24" class="st0" width="23.62" height="23.62"/>
		<path d="M85.06,177.67v-0.95h1.9v0.95H85.06z M85.16,172.08v-1.03l1.7-0.61v1.05L85.16,172.08z M86.86,177.67v-7.22h1.08v7.22
			H86.86z M87.84,177.67v-0.95h1.71v0.95H87.84z"/>
	</g>
	<g>
		<path d="M129.41,31.75c-1.25,0-2.19-0.36-2.81-1.08s-0.94-1.8-0.94-3.24c0-1.37,0.32-2.42,0.97-3.17
			c0.65-0.75,1.56-1.12,2.73-1.12c0.59,0,1.1,0.09,1.54,0.27s0.77,0.44,0.97,0.78L131,25.06c-0.18-0.27-0.41-0.47-0.68-0.62
			c-0.27-0.15-0.57-0.22-0.88-0.22c-0.79,0-1.41,0.27-1.85,0.82c-0.44,0.55-0.66,1.32-0.66,2.33c0,1.1,0.22,1.92,0.66,2.47
			c0.44,0.55,1.1,0.82,1.97,0.82c0.37,0,0.7-0.04,0.99-0.11c0.28-0.07,0.52-0.14,0.7-0.19l0.46,1.03c-0.17,0.05-0.46,0.12-0.87,0.21
			C130.42,31.71,129.94,31.75,129.41,31.75z M128.87,28.57v-1.12h2.8v1.12H128.87z M130.58,31.4v-3.95h1.12v3.95H130.58z"/>
		<path d="M135.71,31.75c-0.87,0-1.54-0.28-2.02-0.85c-0.48-0.57-0.72-1.37-0.72-2.4c0-1.03,0.24-1.83,0.72-2.4
			c0.48-0.57,1.15-0.85,2.02-0.85c0.87,0,1.54,0.28,2.02,0.85c0.48,0.56,0.72,1.36,0.72,2.4c0,1.03-0.24,1.83-0.72,2.4
			C137.26,31.47,136.58,31.75,135.71,31.75z M135.71,30.63c0.46,0,0.82-0.19,1.06-0.55c0.25-0.37,0.37-0.89,0.37-1.57
			c0-0.68-0.13-1.2-0.37-1.57c-0.25-0.37-0.6-0.55-1.06-0.55s-0.82,0.18-1.06,0.55c-0.25,0.37-0.37,0.89-0.37,1.57
			c0,0.68,0.13,1.2,0.37,1.57C134.9,30.45,135.25,30.63,135.71,30.63z"/>
		<path d="M142.79,31.75c-0.87,0-1.54-0.28-2.02-0.85c-0.48-0.57-0.72-1.37-0.72-2.4c0-1.03,0.24-1.83,0.72-2.4
			c0.48-0.57,1.15-0.85,2.02-0.85c0.87,0,1.54,0.28,2.02,0.85c0.48,0.56,0.72,1.36,0.72,2.4c0,1.03-0.24,1.83-0.72,2.4
			C144.34,31.47,143.66,31.75,142.79,31.75z M142.79,30.63c0.46,0,0.82-0.19,1.06-0.55c0.25-0.37,0.37-0.89,0.37-1.57
			c0-0.68-0.13-1.2-0.37-1.57c-0.25-0.37-0.6-0.55-1.06-0.55c-0.46,0-0.82,0.18-1.06,0.55c-0.25,0.37-0.37,0.89-0.37,1.57
			c0,0.68,0.13,1.2,0.37,1.57C141.98,30.45,142.33,30.63,142.79,30.63z"/>
		<path d="M149.39,31.75c-0.79,0-1.4-0.27-1.84-0.82c-0.43-0.55-0.65-1.34-0.65-2.36c0-1.05,0.22-1.86,0.65-2.44
			c0.44-0.58,1.05-0.86,1.85-0.86c0.5,0,0.89,0.1,1.17,0.31c0.27,0.21,0.44,0.52,0.49,0.94h0.48l-0.37,1.6
			c0-1.2-0.53-1.79-1.59-1.79c-0.46,0-0.82,0.19-1.06,0.58s-0.37,0.94-0.37,1.66c0,1.42,0.48,2.12,1.45,2.12
			c1.05,0,1.58-0.35,1.58-1.06v-0.68l0.42,1.72h-0.54c-0.04,0.36-0.21,0.63-0.51,0.81C150.25,31.66,149.86,31.75,149.39,31.75z
			 M151.3,31.7l-0.13-1.23v-7.68h1.25v8.85L151.3,31.7z"/>
		<path d="M161.25,31.64v-8.38h1.13v8.38H161.25z M163.49,28.21l-0.96-3.47h-0.34v-1.49h0.84l0.96,3.6h0.05l0.12,1.36H163.49z
			 M163.83,28.21l0.18-1.36h0.07l0.96-3.6h0.84v1.49h-0.34l-0.96,3.47H163.83z M165.68,31.64v-8.38h1.13v8.38H165.68z"/>
		<path d="M171.11,31.75c-0.87,0-1.54-0.28-2.02-0.85c-0.48-0.57-0.72-1.37-0.72-2.4c0-1.03,0.24-1.83,0.72-2.4
			c0.48-0.57,1.15-0.85,2.02-0.85c0.87,0,1.54,0.28,2.02,0.85c0.48,0.56,0.72,1.36,0.72,2.4c0,1.03-0.24,1.83-0.72,2.4
			C172.66,31.47,171.98,31.75,171.11,31.75z M171.11,30.63c0.46,0,0.82-0.19,1.06-0.55c0.25-0.37,0.37-0.89,0.37-1.57
			c0-0.68-0.13-1.2-0.37-1.57c-0.25-0.37-0.6-0.55-1.06-0.55s-0.82,0.18-1.06,0.55c-0.25,0.37-0.37,0.89-0.37,1.57
			c0,0.68,0.13,1.2,0.37,1.57C170.3,30.45,170.65,30.63,171.11,30.63z"/>
		<path d="M175.12,31.64v-1.03h4.18v1.03H175.12z M175.36,26.41v-1.03h2.09l0.12,1.03H175.36z M176.52,31.64v-6.25h1.01l0.24,1.79
			v4.46H176.52z M177.77,28.95l-0.37-1.96h0.48c0.07-1.15,0.64-1.72,1.72-1.72c0.64,0,1.11,0.18,1.4,0.55
			c0.29,0.37,0.44,0.97,0.44,1.79h-1.24c0-0.46-0.07-0.78-0.2-0.99c-0.14-0.2-0.36-0.3-0.66-0.3c-0.53,0-0.93,0.23-1.19,0.68
			C177.9,27.46,177.77,28.11,177.77,28.95z"/>
		<path d="M182.72,31.64v-6.25h1.13l0.12,1.32v4.93H182.72z M186.57,31.64v-4.07c0-0.38-0.1-0.67-0.29-0.87
			c-0.2-0.2-0.47-0.31-0.83-0.31c-0.98,0-1.47,0.58-1.47,1.73l-0.37-1.6h0.48c0.04-0.42,0.19-0.73,0.46-0.94
			c0.27-0.21,0.67-0.31,1.19-0.31c0.66,0,1.17,0.2,1.53,0.6c0.36,0.4,0.54,0.97,0.54,1.7v4.07H186.57z"/>
		<path d="M189.76,31.64v-1.03h2.5v1.03H189.76z M190.11,26.42v-1.04h3.28v1.04H190.11z M192.69,24.39c-0.24,0-0.45-0.09-0.62-0.26
			c-0.17-0.17-0.26-0.38-0.26-0.62c0-0.24,0.09-0.45,0.26-0.62c0.17-0.17,0.38-0.25,0.62-0.25c0.24,0,0.45,0.08,0.62,0.25
			c0.17,0.17,0.25,0.38,0.25,0.62c0,0.24-0.08,0.45-0.25,0.62C193.14,24.31,192.94,24.39,192.69,24.39z M192.14,31.64v-5.9h1.25v5.9
			H192.14z M193.27,31.64v-1.03h2.04v1.03H193.27z"/>
		<path d="M196.88,31.64v-6.25h1.13l0.12,1.32v4.93H196.88z M200.73,31.64v-4.07c0-0.38-0.1-0.67-0.29-0.87
			c-0.2-0.2-0.47-0.31-0.83-0.31c-0.98,0-1.47,0.58-1.47,1.73l-0.37-1.6h0.48c0.04-0.42,0.19-0.73,0.46-0.94
			c0.27-0.21,0.67-0.31,1.19-0.31c0.66,0,1.17,0.2,1.53,0.6c0.36,0.4,0.54,0.97,0.54,1.7v4.07H200.73z"/>
		<path d="M206.03,31.75c-0.79,0-1.4-0.27-1.84-0.82c-0.43-0.55-0.65-1.34-0.65-2.36c0-1.05,0.22-1.86,0.65-2.44
			c0.44-0.58,1.05-0.86,1.85-0.86c0.5,0,0.89,0.1,1.17,0.31c0.27,0.21,0.44,0.52,0.49,0.94h0.48l-0.37,1.37
			c0-0.52-0.12-0.91-0.35-1.17c-0.24-0.26-0.59-0.39-1.06-0.39c-0.52,0-0.91,0.19-1.19,0.58c-0.28,0.39-0.42,0.94-0.42,1.66
			c0,0.7,0.14,1.23,0.41,1.59c0.28,0.36,0.68,0.54,1.22,0.54c0.47,0,0.82-0.09,1.06-0.27c0.23-0.18,0.35-0.44,0.35-0.8v-0.68
			l0.42,1.72h-0.54c-0.04,0.36-0.21,0.63-0.51,0.81C206.88,31.66,206.5,31.75,206.03,31.75z M204.04,34.46l-0.06-1.14l2.01-0.06
			c0.63-0.02,1.09-0.19,1.38-0.53c0.28-0.33,0.43-0.82,0.43-1.46v-1.43h1.26v1.24c0,1.11-0.25,1.94-0.76,2.47s-1.32,0.81-2.42,0.85
			L204.04,34.46z M207.81,30.1v-3.4l0.12-1.32h1.13v4.72H207.81z"/>
		<path d="M214.2,24.75l-0.57,5.1c-0.13,0.13-0.25,0.13-0.38,0l-0.57-5.1c0.06-0.69,0.31-1.04,0.76-1.04
			C214.01,23.71,214.27,24.05,214.2,24.75z M213.73,30.79c0.38,0.25,0.5,0.57,0.38,0.94c-0.19,0.38-0.5,0.5-0.94,0.38
			c-0.38-0.25-0.5-0.57-0.38-0.94C212.98,30.79,213.29,30.66,213.73,30.79z"/>
	</g>
	<g>
		<g>
			<line class="st1" x1="169.94" y1="69.46" x2="169.94" y2="38.64"/>
			<g>
				<polygon points="172.43,68.73 169.94,73.05 167.44,68.73 				"/>
			</g>
		</g>
	</g>
	<g>
		<g>
			<line class="st1" x1="219.48" y1="71.08" x2="169.94" y2="38.64"/>
			<g>
				<polygon points="220.23,68.6 222.48,73.05 217.5,72.77 				"/>
			</g>
		</g>
	</g>
	<g>
		<g>
			<line class="st1" x1="120.4" y1="71.08" x2="169.94" y2="38.64"/>
			<g>
				<polygon points="122.37,72.77 117.39,73.05 119.64,68.6 				"/>
			</g>
		</g>
	</g>
	<g>
		<g>
			<line class="st1" x1="169.94" y1="106.79" x2="169.94" y2="101.23"/>
			<g>
				<polygon points="172.43,106.06 169.94,110.38 167.44,106.06 				"/>
			</g>
		</g>
	</g>
	<g>
		<g>
			<line class="st1" x1="222.48" y1="106.79" x2="222.48" y2="101.23"/>
			<g>
				<polygon points="224.97,106.06 222.48,110.38 219.99,106.06 				"/>
			</g>
		</g>
	</g>
	<g>
		<g>
			<line class="st1" x1="117.39" y1="106.79" x2="117.39" y2="101.23"/>
			<g>
				<polygon points="119.89,106.06 117.39,110.38 114.9,106.06 				"/>
			</g>
		</g>
	</g>
	<path d="M168.9,118.15l-0.12-0.66c0.53-0.07,0.96-0.18,1.29-0.32s0.58-0.31,0.73-0.51s0.23-0.42,0.23-0.66
		c0-0.3-0.09-0.52-0.28-0.69c-0.19-0.16-0.46-0.25-0.81-0.25c-0.26,0-0.53,0.06-0.82,0.19c-0.29,0.13-0.56,0.32-0.82,0.58l-0.7-0.7
		c0.31-0.35,0.67-0.61,1.08-0.77s0.87-0.24,1.37-0.24c0.66,0,1.17,0.14,1.53,0.42c0.36,0.28,0.54,0.68,0.54,1.2
		c0,0.43-0.14,0.81-0.42,1.13c-0.28,0.32-0.64,0.54-1.09,0.66v0.61H168.9z M169.58,121.55c-0.37,0-0.71-0.02-1.02-0.07
		c-0.31-0.04-0.59-0.1-0.83-0.18l0.13-0.97c0.21,0.06,0.44,0.12,0.7,0.18c0.26,0.06,0.59,0.1,0.98,0.1c0.52,0,0.93-0.11,1.22-0.32
		c0.29-0.21,0.43-0.51,0.43-0.89c0-0.27-0.08-0.5-0.25-0.69s-0.41-0.33-0.72-0.43c-0.32-0.1-0.7-0.15-1.15-0.15h-0.16l-0.12-0.66
		l1.56,0.12c0.58,0.04,1.04,0.23,1.4,0.56c0.36,0.33,0.54,0.78,0.54,1.35c0,0.64-0.23,1.14-0.7,1.5
		C171.1,121.38,170.44,121.55,169.58,121.55z"/>
	<path d="M117.39,121.55c-0.78,0-1.39-0.18-1.82-0.55s-0.64-0.88-0.64-1.54c0-0.61,0.21-1.08,0.64-1.41s1.04-0.5,1.82-0.5
		c0.78,0,1.39,0.17,1.82,0.5s0.64,0.8,0.64,1.41c0,0.66-0.21,1.17-0.64,1.54S118.18,121.55,117.39,121.55z M117.39,117.66
		c-0.72,0-1.27-0.15-1.67-0.45c-0.4-0.3-0.59-0.71-0.59-1.25c0-0.58,0.2-1.03,0.59-1.35s0.95-0.48,1.67-0.48
		c0.72,0,1.28,0.16,1.67,0.48s0.59,0.77,0.59,1.35c0,0.54-0.2,0.96-0.59,1.25C118.67,117.51,118.11,117.66,117.39,117.66z
		 M117.39,120.62c0.44,0,0.78-0.11,1.01-0.32c0.24-0.21,0.36-0.51,0.36-0.89c0-0.41-0.12-0.72-0.36-0.95
		c-0.24-0.23-0.58-0.34-1.01-0.34c-0.44,0-0.78,0.11-1.01,0.34c-0.24,0.23-0.36,0.54-0.36,0.95c0,0.38,0.12,0.67,0.36,0.89
		C116.62,120.51,116.96,120.62,117.39,120.62z M117.39,117.15c0.37,0,0.66-0.09,0.86-0.26c0.2-0.17,0.31-0.42,0.31-0.72
		c0-0.35-0.1-0.62-0.31-0.81c-0.2-0.19-0.49-0.28-0.86-0.28c-0.37,0-0.66,0.1-0.86,0.28c-0.2,0.19-0.31,0.46-0.31,0.81
		c0,0.31,0.1,0.55,0.31,0.72C116.74,117.06,117.02,117.15,117.39,117.15z M116.55,117.86v-0.52h1.7v0.52H116.55z"/>
	<g>
		<polygon points="219.95,114.33 218.87,114.33 217.17,114.94 217.17,115.97 218.87,115.38 218.87,120.61 217.07,120.61 
			217.07,121.55 218.87,121.55 218.98,121.55 219.85,121.55 219.95,121.55 221.56,121.55 221.56,120.61 219.95,120.61 		"/>
		<path d="M224.77,120.61v-0.15c0.95-0.62,1.65-1.27,2.11-1.94s0.69-1.38,0.69-2.11c0-0.73-0.19-1.27-0.57-1.64
			c-0.38-0.36-0.95-0.54-1.71-0.54c-0.47,0-0.92,0.1-1.35,0.31c-0.43,0.2-0.76,0.47-1,0.81l0.7,0.7c0.21-0.26,0.47-0.48,0.77-0.64
			c0.3-0.16,0.58-0.24,0.86-0.24c0.41,0,0.72,0.1,0.93,0.31s0.31,0.52,0.31,0.93c0,0.71-0.28,1.4-0.83,2.08s-1.38,1.32-2.5,1.93
			v1.14h0.31h1.28h3.11v-0.95H224.77z"/>
	</g>
	<g>
		<g>
			<line class="st1" x1="202.11" y1="160.85" x2="117.39" y2="125.03"/>
			<g>
				<polygon points="202.41,158.27 205.41,162.24 200.46,162.86 				"/>
			</g>
		</g>
	</g>
	<g>
		<g>
			<line class="st1" x1="90.67" y1="160.77" x2="169.94" y2="125.03"/>
			<g>
				<polygon points="92.36,162.74 87.4,162.24 90.31,158.2 				"/>
			</g>
		</g>
	</g>
	<g>
		<g>
			<line class="st1" x1="296.67" y1="160.69" x2="222.48" y2="125.03"/>
			<g>
				<polygon points="297.09,158.13 299.9,162.24 294.93,162.62 				"/>
			</g>
		</g>
	</g>
	<g>
		<path d="M28.25,80.27v-7.22h0.98v7.22H28.25z M30.18,77.32l-0.82-2.99h-0.3v-1.28h0.72l0.82,3.1h0.04l0.1,1.17H30.18z
			 M30.47,77.32l0.15-1.17h0.06l0.82-3.1h0.72v1.28h-0.3l-0.82,2.99H30.47z M32.07,80.27v-7.22h0.98v7.22H32.07z"/>
		<path d="M34.21,75.86v-0.95h5.09v0.95H34.21z M34.21,78.41v-0.95h5.09v0.95H34.21z"/>
		<path d="M41.73,76.96l-0.12-0.66c0.53-0.07,0.96-0.18,1.29-0.32c0.33-0.14,0.58-0.31,0.73-0.51c0.16-0.2,0.23-0.42,0.23-0.66
			c0-0.29-0.09-0.52-0.28-0.69c-0.19-0.16-0.46-0.25-0.81-0.25c-0.26,0-0.53,0.06-0.82,0.19s-0.56,0.32-0.82,0.58l-0.7-0.7
			c0.31-0.35,0.67-0.61,1.08-0.77c0.41-0.16,0.87-0.24,1.37-0.24c0.66,0,1.17,0.14,1.53,0.42c0.36,0.28,0.54,0.68,0.54,1.2
			c0,0.43-0.14,0.81-0.42,1.13c-0.28,0.32-0.64,0.54-1.09,0.66v0.61H41.73z M42.42,80.37c-0.37,0-0.71-0.02-1.02-0.07
			c-0.31-0.04-0.59-0.1-0.83-0.18l0.13-0.97c0.21,0.06,0.44,0.12,0.7,0.18s0.59,0.1,0.98,0.1c0.52,0,0.93-0.1,1.22-0.32
			s0.43-0.51,0.43-0.89c0-0.27-0.08-0.5-0.25-0.69c-0.17-0.19-0.41-0.33-0.72-0.43c-0.32-0.1-0.7-0.15-1.15-0.15h-0.16l-0.12-0.66
			l1.56,0.12c0.58,0.04,1.04,0.23,1.4,0.56c0.36,0.33,0.54,0.78,0.54,1.35c0,0.64-0.23,1.14-0.7,1.5
			C43.94,80.19,43.27,80.37,42.42,80.37z"/>
	</g>
	<g>
		<path d="M28.25,105.81v-7.22h0.98v7.22H28.25z M31.56,105.81l-2.24-5.49h-0.47v-1.73h0.67l2.24,5.49h0.25v1.73H31.56z
			 M31.87,105.81v-7.22h0.98v7.22H31.87z"/>
		<path d="M34.11,101.4v-0.95h5.09v0.95H34.11z M34.11,103.95V103h5.09v0.95H34.11z"/>
		<path d="M40.56,105.81v-0.95h1.9v0.95H40.56z M40.67,100.22v-1.03l1.7-0.61v1.05L40.67,100.22z M42.37,105.81v-7.22h1.08v7.22
			H42.37z M43.34,105.81v-0.95h1.71v0.95H43.34z"/>
		<path d="M46.68,105.81v-1.14c1.12-0.62,1.95-1.26,2.5-1.93s0.83-1.36,0.83-2.08c0-0.41-0.1-0.72-0.31-0.93
			c-0.2-0.21-0.51-0.31-0.93-0.31c-0.27,0-0.56,0.08-0.86,0.24c-0.3,0.16-0.55,0.37-0.77,0.64l-0.7-0.7c0.23-0.34,0.57-0.61,1-0.81
			c0.43-0.2,0.88-0.31,1.35-0.31c0.76,0,1.33,0.18,1.71,0.54c0.38,0.36,0.57,0.91,0.57,1.64c0,0.73-0.23,1.44-0.69,2.11
			c-0.46,0.67-1.17,1.32-2.11,1.94v1.1H46.68z M46.98,105.81v-0.95h4.39v0.95H46.98z"/>
	</g>
</g>
</svg>
